<svg width="168" height="24" viewBox="0 0 168 24" fill="none" xmlns="http://www.w3.org/2000/svg">
<path d="M9.59798 8.30426L12 2.54946L14.402 8.30426C14.5419 8.63938 14.8576 8.86723 15.2187 8.89608L21.4493 9.39383L16.7036 13.4448C16.4276 13.6804 16.3064 14.0508 16.391 14.4042L17.8415 20.4636L12.5041 17.215C12.1945 17.0266 11.8055 17.0266 11.4959 17.215L6.15848 20.4636L7.60898 14.4042C7.69359 14.0508 7.57245 13.6804 7.29644 13.4448L2.55067 9.39383L8.78134 8.89608C9.14244 8.86723 9.4581 8.63938 9.59798 8.30426Z" stroke="#FFBC1F"/>
<path d="M45.598 8.30426L48 2.54946L50.402 8.30426C50.5419 8.63938 50.8576 8.86723 51.2187 8.89608L57.4493 9.39383L52.7036 13.4448C52.4276 13.6804 52.3064 14.0508 52.391 14.4042L53.8415 20.4636L48.5041 17.215C48.1945 17.0266 47.8055 17.0266 47.4959 17.215L42.1585 20.4636L43.609 14.4042C43.6936 14.0508 43.5724 13.6804 43.2964 13.4448L38.5507 9.39383L44.7813 8.89608C45.1424 8.86723 45.4581 8.63938 45.598 8.30426Z" stroke="#FFBC1F"/>
<path d="M81.598 8.30426L84 2.54946L86.402 8.30426C86.5419 8.63938 86.8576 8.86723 87.2187 8.89608L93.4493 9.39383L88.7036 13.4448C88.4276 13.6804 88.3064 14.0508 88.391 14.4042L89.8415 20.4636L84.5041 17.215C84.1945 17.0266 83.8055 17.0266 83.4959 17.215L78.1585 20.4636L79.609 14.4042C79.6936 14.0508 79.5724 13.6804 79.2964 13.4448L74.5507 9.39383L80.7813 8.89608C81.1424 8.86723 81.4581 8.63938 81.598 8.30426Z" stroke="#FFBC1F"/>
<path d="M117.598 8.30426L120 2.54946L122.402 8.30426C122.542 8.63938 122.858 8.86723 123.219 8.89608L129.449 9.39383L124.704 13.4448C124.428 13.6804 124.306 14.0508 124.391 14.4042L125.842 20.4636L120.504 17.215C120.195 17.0266 119.805 17.0266 119.496 17.215L114.158 20.4636L115.609 14.4042C115.694 14.0508 115.572 13.6804 115.296 13.4448L110.551 9.39383L116.781 8.89608C117.142 8.86723 117.458 8.63938 117.598 8.30426Z" stroke="#FFBC1F"/>
<path d="M153.598 8.30426L156 2.54946L158.402 8.30426C158.542 8.63938 158.858 8.86723 159.219 8.89608L165.449 9.39383L160.704 13.4448C160.428 13.6804 160.306 14.0508 160.391 14.4042L161.842 20.4636L156.504 17.215C156.195 17.0266 155.805 17.0266 155.496 17.215L150.158 20.4636L151.609 14.4042C151.694 14.0508 151.572 13.6804 151.296 13.4448L146.551 9.39383L152.781 8.89608C153.142 8.86723 153.458 8.63938 153.598 8.30426Z" stroke="#FFBC1F"/>
</svg>
